PathFileType	4	(X/Y/Z)
DataRate	CameraRate	NumFrames	NumMarkers	Units	OrigDataRate	OrigDataStartFrame	OrigNumFrames	
	120.0	120.0	8	39	mm	120.0	176	201
Frame#	Time	midhip	hip_r	hip_l	knee_r	knee_l	ankle_r	ankle_l	midasis	asis_r	asis_l	psis_r	psis_l	epicondLat_r	epicondLat_l	epicondMed_r	epicondMed_l	malleolusLat_r	malleolusLat_l	malleolusMedv_r	malleolusMedv_l	heel_r	heel_l	sternalnotch	xyphoidprocess	neck	subclavicle_r	subclavicle_l	toe_r	toe_l	thighwand_r	thighwand_l	upperleg1_r	upperleg1_l	upperleg2_r	upperleg2_l	shankwand_r	shankwand_l	lowerleg1_r	lowerleg1_l
	X1	Y1	Z1	X2	Y2	Z2	X3	Y3	Z3	X4	Y4	Z4	X5	Y5	Z5	X6	Y6	Z6	X7	Y7	Z7	X8	Y8	Z8	X9	Y9	Z9	X10	Y10	Z10	X11	Y11	Z11	X12	Y12	Z12	X13	Y13	Z13	X14	Y14	Z14	X15	Y15	Z15	X16	Y16	Z16	X17	Y17	Z17	X18	Y18	Z18	X19	Y19	Z19	X20	Y20	Z20	X21	Y21	Z21	X22	Y22	Z22	X23	Y23	Z23	X24	Y24	Z24	X25	Y25	Z25	X26	Y26	Z26	X27	Y27	Z27	X28	Y28	Z28	X29	Y29	Z29	X30	Y30	Z30	X31	Y31	Z31	X32	Y32	Z32	X33	Y33	Z33	X34	Y34	Z34	X35	Y35	Z35	X36	Y36	Z36	X37	Y37	Z37	X38	Y38	Z38	X39	Y39	Z39

	176	1.46667	749.100	785.011	-243.851	729.303	790.729	-164.342	727.132	790.915	-319.956	723.392	420.533	-155.087	733.493	429.479	-333.035	716.561	59.072	-117.258	726.806	56.854	-368.573	863.830	851.345	-243.969	865.544	851.198	-121.150	862.116	851.492	-366.788	627.363	944.919	-206.874	621.416	943.784	-261.786	729.671	422.263	-81.876	726.395	432.000	-406.148	709.323	426.361	-225.503	729.354	409.334	-259.494	706.082	63.340	-78.371	702.684	60.488	-402.147	722.513	67.025	-153.301	723.635	72.866	-325.985	654.030	49.741	-124.646	672.402	47.610	-334.006	791.268	1287.485	-264.971	847.871	1217.394	-265.384	673.928	1352.852	-245.936	808.955	1293.802	-212.632	807.018	1294.112	-293.704	824.529	43.691	-104.726	821.969	48.042	-383.667	891.463	571.990	-91.070	910.157	603.488	-348.167	853.410	594.522	-110.297	863.185	620.642	-351.840	824.676	522.471	-115.151	844.581	548.998	-352.599	801.057	208.669	-104.112	686.368	176.132	-459.558	755.596	214.842	-117.472	692.913	184.361	-412.866
	177	1.47500	749.131	784.988	-243.925	729.315	790.696	-164.420	727.180	790.896	-320.035	723.397	420.484	-155.024	733.571	429.522	-333.043	716.571	59.003	-117.255	726.821	56.853	-368.593	863.854	851.335	-244.010	865.539	851.177	-121.164	862.168	851.492	-366.856	627.348	944.887	-206.859	621.475	943.732	-261.719	729.674	422.242	-81.814	726.422	432.027	-406.152	709.670	426.069	-225.675	730.261	408.538	-260.330	706.091	63.264	-78.368	702.677	60.491	-402.150	722.191	67.069	-153.333	723.717	72.870	-326.012	654.023	49.716	-124.665	672.402	47.596	-334.039	791.272	1287.469	-264.910	847.880	1217.382	-265.301	673.994	1352.805	-245.879	808.955	1293.802	-212.632	807.024	1294.089	-293.583	824.559	43.690	-104.755	821.963	48.033	-383.671	891.466	571.961	-91.001	910.171	603.485	-348.179	853.461	594.377	-110.463	863.185	620.642	-351.840	824.726	522.488	-115.184	844.971	549.156	-352.853	801.033	208.618	-104.076	686.342	176.105	-459.583	755.422	214.697	-117.211	692.945	184.389	-412.859
	178	1.48333	749.158	784.959	-243.981	729.336	790.655	-164.476	727.208	790.876	-320.090	723.398	420.423	-154.962	733.583	429.511	-333.067	716.561	58.942	-117.253	726.817	56.854	-368.597	863.869	851.325	-244.051	865.549	851.151	-121.164	862.189	851.499	-366.938	627.328	944.847	-206.835	621.532	943.665	-261.651	729.671	422.204	-81.751	726.422	432.010	-406.175	709.764	425.857	-225.577	731.429	407.455	-261.237	706.078	63.196	-78.366	702.667	60.491	-402.149	721.919	67.092	-153.355	723.749	72.874	-326.024	654.004	49.693	-124.683	672.396	47.564	-334.090	791.316	1287.454	-265.021	847.916	1217.364	-265.726	673.958	1352.732	-245.852	808.952	1293.514	-212.785	807.095	1294.220	-293.555	824.625	43.685	-104.823	821.973	48.057	-383.650	891.493	571.922	-90.947	910.204	603.479	-348.186	853.497	594.300	-110.543	863.056	620.646	-351.741	824.730	522.476	-115.131	845.316	549.326	-353.101	800.997	208.545	-104.024	686.310	176.058	-459.640	755.214	214.583	-117.013	692.944	184.390	-412.863
	179	1.49167	749.182	784.931	-244.007	729.371	790.616	-164.498	727.216	790.860	-320.112	723.391	420.364	-154.911	733.491	429.426	-333.108	716.527	58.901	-117.258	726.788	56.867	-368.568	863.883	851.314	-244.087	865.586	851.121	-121.161	862.181	851.506	-367.013	627.309	944.822	-206.812	621.581	943.600	-261.585	729.661	422.158	-81.701	726.382	431.931	-406.220	709.828	425.945	-225.701	731.531	407.249	-260.761	706.042	63.152	-78.370	702.662	60.496	-402.139	721.990	67.044	-153.350	723.646	72.763	-325.969	653.981	49.674	-124.699	672.385	47.529	-334.134	791.206	1287.508	-265.159	847.826	1217.436	-266.073	673.888	1352.697	-245.856	808.900	1293.464	-212.848	806.950	1294.339	-293.779	824.687	43.677	-104.890	821.969	48.093	-383.620	891.544	571.875	-90.921	910.252	603.466	-348.189	853.528	594.328	-110.511	862.797	620.654	-351.543	824.766	522.475	-115.167	845.005	549.143	-352.924	800.957	208.462	-103.966	686.281	176.006	-459.693	755.208	214.597	-117.054	692.881	184.375	-412.678
	180	1.50000	749.204	784.905	-244.006	729.418	790.584	-164.489	727.207	790.852	-320.102	723.378	420.309	-154.878	733.310	429.290	-333.152	716.476	58.886	-117.268	726.736	56.888	-368.515	863.898	851.301	-244.118	865.646	851.089	-121.163	862.151	851.513	-367.072	627.288	944.825	-206.790	621.620	943.548	-261.527	729.650	422.107	-81.668	726.307	431.811	-406.274	709.707	426.302	-225.864	731.992	406.947	-260.791	705.992	63.133	-78.380	702.659	60.504	-402.122	722.100	67.009	-153.345	723.518	72.631	-325.896	653.953	49.670	-124.709	672.385	47.518	-334.142	791.095	1287.581	-265.175	847.740	1217.529	-266.047	673.888	1352.697	-245.856	808.830	1293.607	-212.814	806.812	1294.384	-293.886	824.721	43.671	-104.930	821.944	48.121	-383.592	891.601	571.834	-90.915	910.310	603.446	-348.188	853.590	594.422	-110.414	862.797	620.654	-351.543	824.762	522.487	-115.219	845.157	549.092	-352.934	800.920	208.388	-103.912	686.268	175.980	-459.712	755.239	214.651	-117.132	692.815	184.350	-412.458
	181	1.50833	749.224	784.891	-243.974	729.474	790.567	-164.445	727.180	790.857	-320.057	723.363	420.267	-154.862	733.105	429.147	-333.175	716.408	58.903	-117.283	726.687	56.909	-368.454	863.912	851.296	-244.137	865.725	851.067	-121.153	862.099	851.525	-367.120	627.267	944.855	-206.766	621.641	943.514	-261.495	729.640	422.057	-81.653	726.215	431.686	-406.307	709.452	426.899	-225.974	732.818	406.465	-261.860	705.927	63.149	-78.394	702.662	60.512	-402.100	722.004	67.027	-153.357	723.633	72.753	-325.922	653.923	49.687	-124.707	672.408	47.542	-334.110	791.089	1287.679	-265.240	847.772	1217.658	-266.130	673.888	1352.697	-245.856	808.794	1293.679	-212.798	806.816	1294.510	-294.008	824.727	43.668	-104.940	821.924	48.137	-383.579	891.650	571.810	-90.906	910.365	603.426	-348.197	853.857	594.538	-110.262	863.056	620.646	-351.741	824.763	522.472	-115.209	845.844	549.431	-353.289	800.894	208.350	-103.868	686.272	175.982	-459.711	755.112	214.643	-117.107	692.873	184.358	-412.619
	182	1.51667	749.230	784.892	-243.938	729.519	790.570	-164.397	727.139	790.877	-320.008	723.352	420.249	-154.866	732.919	429.026	-333.165	716.336	58.954	-117.303	726.655	56.923	-368.404	863.916	851.301	-244.157	865.798	851.058	-121.146	862.035	851.543	-367.167	627.256	944.907	-206.737	621.649	943.507	-261.484	729.637	422.029	-81.657	726.118	431.577	-406.305	709.518	427.282	-226.234	732.031	407.125	-261.697	705.860	63.200	-78.412	702.670	60.516	-402.079	721.922	67.050	-153.365	723.721	72.909	-325.949	653.910	49.713	-124.695	672.444	47.583	-334.057	791.169	1287.775	-265.288	847.865	1217.764	-266.133	673.958	1352.732	-245.852	808.759	1293.713	-212.670	806.957	1294.644	-294.140	824.714	43.667	-104.926	821.911	48.139	-383.588	891.683	571.807	-90.897	910.401	603.411	-348.229	854.099	594.622	-110.180	863.185	620.642	-351.840	824.854	522.475	-115.257	845.692	549.482	-353.280	800.878	208.362	-103.852	686.281	176.005	-459.700	755.074	214.604	-117.070	692.908	184.353	-412.841
	183	1.52500	749.226	784.901	-243.945	729.540	790.586	-164.396	727.101	790.908	-320.006	723.347	420.257	-154.892	732.771	428.946	-333.130	716.297	59.019	-117.322	726.634	56.923	-368.379	863.915	851.306	-244.200	865.843	851.051	-121.184	861.987	851.560	-367.216	627.264	944.974	-206.706	621.649	943.521	-261.490	729.640	422.030	-81.684	726.029	431.493	-406.276	709.596	426.809	-226.026	731.103	407.868	-260.987	705.826	63.269	-78.430	702.675	60.510	-402.074	722.112	67.039	-153.353	723.659	72.913	-325.927	653.923	49.733	-124.679	672.471	47.621	-334.008	791.236	1287.853	-265.214	847.958	1217.861	-265.851	673.994	1352.778	-245.874	808.713	1293.863	-212.460	807.080	1294.693	-294.147	824.680	43.671	-104.887	821.889	48.132	-383.625	891.692	571.822	-90.919	910.412	603.399	-348.277	853.848	594.580	-110.312	863.185	620.642	-351.840	824.810	522.488	-115.253	845.272	549.338	-353.097	800.880	208.421	-103.867	686.282	176.047	-459.682	755.251	214.666	-117.189	692.867	184.335	-412.849
